<svg width="18" height="17" viewBox="0 0 18 17" fill="none" xmlns="http://www.w3.org/2000/svg">
<g clip-path="url(#clip0_107_2)">
<path d="M3.67383 16.8721H14.3174C16.2158 16.8721 17.2002 15.8877 17.2002 14.0156V3.31934C17.2002 1.43848 16.2158 0.462891 14.3174 0.462891H3.67383C1.77539 0.462891 0.791016 1.43848 0.791016 3.31934V14.0156C0.791016 15.8965 1.77539 16.8721 3.67383 16.8721ZM6.76758 13.9365C6.1084 13.9365 5.73047 13.585 5.7041 12.9258L5.39648 5.95605H4.71094C4.46484 5.95605 4.27148 5.77148 4.27148 5.52539C4.28027 5.2793 4.46484 5.08594 4.71094 5.08594H6.79395V4.42676C6.79395 3.65332 7.30371 3.16113 8.14746 3.16113H9.87891C10.7227 3.16113 11.2412 3.65332 11.2412 4.42676V5.08594H13.3154C13.5703 5.08594 13.7637 5.2793 13.7549 5.52539C13.7461 5.77148 13.5703 5.95605 13.3154 5.95605H12.6562L12.3486 12.9258C12.3223 13.585 11.9268 13.9365 11.2764 13.9365H6.76758ZM7.77832 5.08594H10.248V4.46191C10.248 4.2334 10.0811 4.08398 9.83496 4.08398H8.18262C7.94531 4.08398 7.77832 4.2334 7.77832 4.46191V5.08594ZM7.47949 12.5391C7.68164 12.5391 7.81348 12.3984 7.80469 12.2139L7.6377 7.02832C7.6377 6.82617 7.49707 6.70312 7.30371 6.70312C7.08398 6.70312 6.96094 6.83496 6.96094 7.03711L7.13672 12.2227C7.13672 12.4072 7.28613 12.5391 7.47949 12.5391ZM9.00879 12.5391C9.21973 12.5391 9.35156 12.3984 9.35156 12.2139V7.02832C9.35156 6.82617 9.21973 6.70312 9.00879 6.70312C8.79785 6.70312 8.66602 6.82617 8.66602 7.02832V12.2139C8.66602 12.3984 8.79785 12.5391 9.00879 12.5391ZM10.5381 12.5391C10.7314 12.5391 10.8721 12.4072 10.8809 12.2227L11.0566 7.03711C11.0566 6.83496 10.9336 6.70312 10.7227 6.70312C10.5205 6.70312 10.3799 6.82617 10.3799 7.02832L10.2129 12.2139C10.2041 12.3984 10.3359 12.5391 10.5381 12.5391Z" fill="#A2A2A2"/>
</g>
<defs>
<clipPath id="clip0_107_2">
<rect width="18" height="17" fill="white"/>
</clipPath>
</defs>
</svg>
